<svg width="1123" height="248" viewBox="0 0 1123 248" fill="none" xmlns="http://www.w3.org/2000/svg">
<g clip-path="url(#clip0_592_9400)">
<path d="M277.035 1.36218H354.3C391.968 1.36218 421.014 11.9135 441.436 33.0171C461.86 53.8933 472.071 83.7329 472.071 122.536C472.071 161.112 461.972 190.837 441.777 211.714C421.808 232.59 393.33 243.028 356.343 243.028H277.035V1.36218ZM354.3 210.352C381.303 210.352 401.499 203.091 414.887 188.568C428.502 174.046 435.31 152.035 435.31 122.536C435.31 92.8095 428.502 70.6849 414.887 56.1623C401.499 41.4128 381.303 34.0381 354.3 34.0381H312.434V210.352H354.3Z" fill="#F1F1F1"/>
<path d="M493.684 61.9495H524.997L526.7 109.602L523.634 108.581C526.131 92.6967 531.124 81.0105 538.614 73.5219C546.1 65.807 556.31 61.9495 569.246 61.9495H586.606V93.2637H569.587C560.282 93.2637 552.568 94.8523 546.44 98.0293C540.542 100.979 536.005 105.631 532.827 111.985C529.878 118.338 528.403 126.28 528.403 135.811V243.029H493.684V61.9495Z" fill="#F1F1F1"/>
<path d="M609.041 61.9496H643.756V243.029H609.041V61.9496ZM608.359 0.00115967H644.437V35.4001H608.359V0.00115967Z" fill="#F1F1F1"/>
<path d="M663.471 61.9495H700.571L750.607 207.97L800.642 61.9495H837.742L771.709 243.029H729.504L663.471 61.9495Z" fill="#F1F1F1"/>
<path d="M922.935 247.114C905.687 247.114 890.6 243.256 877.664 235.541C864.957 227.826 855.087 216.82 848.05 202.524C841.245 188.229 837.839 171.55 837.839 152.489C837.839 133.655 841.245 117.091 848.05 102.795C855.087 88.4989 864.957 77.4935 877.664 69.7781C890.371 61.8364 905.123 57.8651 921.913 57.8651C938.023 57.8651 952.321 61.7225 964.8 69.4379C977.279 76.926 986.925 87.9314 993.733 102.454C1000.54 116.75 1003.94 133.882 1003.94 153.851V162.701H873.921C874.603 180.4 879.251 193.902 887.875 203.205C896.499 212.282 908.296 216.82 923.276 216.82C933.939 216.82 942.787 214.438 949.825 209.672C957.086 204.68 962.191 197.646 965.141 188.569L1001.56 191.292C996.57 208.311 987.037 221.926 972.971 232.137C959.125 242.121 942.447 247.114 922.935 247.114ZM967.185 135.811C966.046 120.154 961.398 108.354 953.227 100.412C945.284 92.2429 934.849 88.1587 921.913 88.1587C908.753 88.1587 897.973 92.2429 889.578 100.412C881.183 108.581 875.961 120.381 873.921 135.811H967.185Z" fill="#F1F1F1"/>
<path d="M1029.56 61.9495H1060.88L1062.58 109.602L1059.52 108.581C1062.01 92.6967 1067.01 81.0105 1074.49 73.5219C1081.98 65.807 1092.19 61.9495 1105.13 61.9495H1122.48V93.2637H1105.46C1096.16 93.2637 1088.45 94.8523 1082.32 98.0293C1076.42 100.979 1071.88 105.631 1068.71 111.985C1065.76 118.338 1064.28 126.28 1064.28 135.811V243.029H1029.56V61.9495Z" fill="#F1F1F1"/>
<path d="M0 243.093V1.30511L105.782 61.752V182.646L0 243.093Z" fill="#F1F1F1"/>
<path d="M105.332 243.093V1.30475L211.114 61.7516V182.646L105.332 243.093Z" fill="#F1F1F1"/>
</g>
<defs>
<clipPath id="clip0_592_9400">
<rect width="1123" height="247.533" fill="white"/>
</clipPath>
</defs>
</svg>
